<?xml version="1.0" encoding="UTF-8"?>
<svg width="359px" height="96px" viewBox="0 0 359 96" version="1.1" xmlns="http://www.w3.org/2000/svg" xmlns:xlink="http://www.w3.org/1999/xlink">
    <!-- Generator: Sketch 44.1 (41455) - http://www.bohemiancoding.com/sketch -->
    <title>logo_cardumen@2x</title>
    <desc>Created with Sketch.</desc>
    <defs></defs>
    <g id="Page-1" stroke="none" stroke-width="1" fill="none" fill-rule="evenodd">
        <g id="1---Home---Text-a" transform="translate(-462.000000, -254.000000)" fill="#FFFFFF">
            <g id="Group-2">
                <g id="logo_cardumen" transform="translate(462.000000, 254.000000)">
                    <path d="M34.6932799,55.1312176 C34.3426288,53.7924923 33.4586956,53.9771077 32.4881433,54.3315692 C29.3948991,55.4941187 27.4558817,55.9371956 24.7153759,55.9371956 C17.5677276,55.9371956 13.6834311,52.1900308 13.6834311,43.5320967 C13.6834311,35.8615912 17.3892712,31.2145582 24.2760183,31.2145582 C27.0123497,31.2145582 29.5723119,31.9361407 32.0456549,32.9161846 C33.1925765,33.3603165 34.0785968,33.4510418 34.4334224,32.0237011 L35.8412451,25.5990857 C36.1094515,24.3500308 36.1094515,23.5493275 34.8706927,23.0155253 C30.720277,21.2231736 26.7472741,20.5975912 22.597902,20.5975912 C8.56455029,20.5975912 -0.000313081395,29.7935473 -0.000313081395,44.2484044 C-0.000313081395,58.9743824 9.00703866,66.4687121 21.8068497,66.4687121 C26.4874166,66.4687121 31.2514718,65.6701187 35.2213439,63.8809319 C36.369309,63.3439648 36.902591,62.899833 36.369309,61.1159209 L34.6932799,55.1312176 Z" id="Fill-1"></path>
                    <path d="M67.1530372,51.9231297 C66.0979529,53.2639648 62.9160023,55.6702945 59.7403134,55.6702945 C53.0320227,55.6702945 51.6179384,49.0631736 51.6179384,43.5320967 C51.6179384,35.2381187 55.6786041,31.6681846 60.0074762,31.6681846 C62.6540576,31.6681846 65.5678017,33.272756 67.1530372,34.7032615 L67.1530372,51.9231297 Z M82.4272349,56.3000967 L81.7207145,56.3000967 C80.7501622,56.3000967 80.3932494,55.6702945 80.3932494,54.7830857 L80.3932494,23.9934593 C80.3932494,22.5661187 79.5114035,21.8519209 78.2768192,21.8519209 L70.3349878,21.8519209 C69.1849355,21.8519209 68.4805023,22.4764484 68.3030895,23.6326681 L68.0390576,25.5990857 C66.1845721,22.9226901 62.2126128,20.5975912 57.2648831,20.5975912 C47.5604035,20.5975912 37.8465314,28.6331077 37.8465314,44.4277451 C37.8465314,56.3000967 43.760639,66.4687121 56.475918,66.4687121 C60.7974849,66.4687121 66.4496477,63.9684923 68.8321971,61.2013714 L69.0075227,61.2013714 C70.157575,63.7912615 72.2760924,65.3082725 77.4795052,65.3082725 L82.1579849,65.3082725 C83.3967436,65.3082725 84.2817203,64.5972396 84.2817203,63.2564044 L84.2817203,58.080844 C84.2817203,56.7421187 83.6618192,56.3000967 82.4272349,56.3000967 L82.4272349,56.3000967 Z" id="Fill-4"></path>
                    <path d="M111.479206,20.5971692 C106.627487,20.5971692 103.532156,22.4760264 100.358554,26.3139165 L100.183229,23.6322462 C100.093479,22.2977407 99.2992956,21.8514989 97.6201358,21.8514989 L90.4724875,21.8514989 C88.9686532,21.8514989 87.9114817,22.2977407 87.9114817,24.4340044 L87.9114817,62.8086857 C87.9114817,64.5050374 88.7954148,65.3089055 90.3806503,65.3089055 L98.6814817,65.3089055 C100.445174,65.3089055 101.151694,64.4174769 101.151694,62.8086857 L101.151694,36.1270154 C103.361005,33.8968615 106.363456,32.7343121 109.274069,32.7343121 C110.772685,32.7343121 111.215174,32.9168176 112.099107,32.9168176 C112.895377,32.9168176 113.331604,32.467411 113.511104,31.4842022 L114.832307,23.0151033 C115.101557,21.1362462 114.131005,20.5971692 111.479206,20.5971692" id="Fill-6"></path>
                    <path d="M144.140796,52.3723253 C142.726712,53.8893363 139.460229,55.5825231 136.899223,55.5825231 C130.190933,55.5825231 128.691273,49.0629626 128.691273,43.5318857 C128.691273,38.1780396 130.724215,31.4052923 137.165342,31.4052923 C139.726348,31.4052923 142.551386,32.7345231 144.140796,34.2568088 L144.140796,52.3723253 Z M154.908709,0.0576 L146.259313,1.21381978 C144.582241,1.48388571 144.140796,2.37636923 144.140796,3.9819956 L144.140796,24.1673143 C141.758247,21.9371604 138.135895,20.5973802 134.253685,20.5973802 C121.187755,20.5973802 114.919866,32.467622 114.919866,44.3378637 C114.919866,56.4739516 121.099049,66.4685011 133.457415,66.4685011 C138.135895,66.4685011 142.640092,64.4176879 145.109261,61.6495121 L145.288761,63.5262593 C145.37538,64.5052484 146.081901,65.3091165 147.580517,65.3091165 L154.997415,65.3091165 C156.322793,65.3091165 157.384139,64.5970286 157.384139,62.8088967 L157.384139,1.92801758 C157.384139,0.504896703 156.585781,-0.216685714 154.908709,0.0576 L154.908709,0.0576 Z" id="Fill-8"></path>
                    <path d="M239.910829,20.5971692 C234.352591,20.5971692 228.526146,22.5656967 224.553143,26.5797626 C222.698658,23.5489055 219.434263,20.5971692 213.521199,20.5971692 C209.281033,20.5971692 204.970946,22.1827516 201.535399,24.8950154 L201.535399,24.1671033 C201.535399,22.2977407 200.647292,21.8514989 198.971263,21.8514989 L198.160382,21.8514989 L191.025257,21.8514989 L190.92194,21.8514989 C190.817579,21.8514989 190.725742,21.8652132 190.630774,21.8715429 C190.561896,21.8757626 190.491975,21.8757626 190.423097,21.8852571 C190.379265,21.8915868 190.344826,21.8947516 190.304126,21.9042462 C189.105024,22.0667077 188.291013,22.6733011 188.291013,24.1671033 L188.291013,50.9447736 C185.821844,53.0831473 182.199492,54.4229275 179.284704,54.4229275 C175.315876,54.4229275 174.25453,51.8330374 174.25453,48.1808176 L174.25453,24.1671033 C174.25453,22.2977407 173.374771,21.8514989 171.698742,21.8514989 L163.749606,21.8514989 C162.159152,21.8514989 161.012231,22.386356 161.012231,24.1671033 L161.012231,50.5829275 C161.012231,60.2198505 165.339015,66.4682901 174.963138,66.4682901 C179.899388,66.4682901 184.522556,64.9333451 188.447553,62.0417407 L188.447553,62.7158505 C188.447553,64.6864879 189.335661,65.3089055 191.185972,65.3089055 L191.644114,65.3089055 L198.796981,65.3089055 L199.130934,65.3089055 C200.893582,65.3089055 201.686722,64.5968176 201.686722,62.7158505 L201.686722,36.1270154 C204.165283,33.8968615 207.162515,32.3798505 210.074172,32.3798505 C214.047175,32.3798505 214.843446,35.2376967 214.843446,38.8065758 L214.843446,62.7158505 C214.843446,64.6864879 215.725292,65.3089055 217.581864,65.3089055 L224.819263,65.3089055 C226.580867,65.3089055 227.379225,64.5968176 227.379225,62.7158505 L227.379225,36.1270154 C229.759687,34.0762022 233.382039,32.3798505 236.471108,32.3798505 C240.444111,32.3798505 241.235164,35.2376967 241.235164,38.8065758 L241.235164,62.7158505 C241.235164,64.6864879 242.12014,65.3089055 243.974626,65.3089055 L251.920632,65.3089055 C253.68328,65.3089055 254.476419,64.5968176 254.476419,62.7158505 L254.476419,42.106444 C254.476419,35.7672791 254.297963,31.7553231 252.715858,28.186444 C251.125405,24.5257846 246.799664,20.5971692 239.910829,20.5971692" id="Fill-10"></path>
                    <path d="M272.239197,38.6271297 C272.85388,34.4316132 275.769711,30.9502945 280.184159,30.9502945 C284.772889,30.9502945 286.979069,34.7881846 286.979069,38.6271297 L272.239197,38.6271297 Z M280.977299,20.5970637 C267.380174,20.5970637 258.110877,29.6147341 258.110877,43.4440088 C258.110877,57.7258549 267.027435,66.4692396 281.063918,66.4692396 C286.183842,66.4692396 292.364069,65.6706462 297.043592,63.4373275 C298.364796,62.8085802 298.98261,62.0964923 298.540121,60.3980308 L297.130211,54.7825582 C296.690854,53.173767 295.633682,53.0830418 294.39388,53.6178989 C290.863365,55.0494593 287.334938,55.8491077 283.448554,55.8491077 C278.061467,55.8491077 273.118956,52.7285802 272.056566,47.1057231 L296.777473,47.1057231 C298.98261,47.1057231 299.957336,46.6584264 299.957336,44.515833 L299.957336,43.3564484 C299.957336,37.1111736 299.071316,31.0399648 294.655825,26.313811 C291.392473,22.742822 286.622156,20.5970637 280.977299,20.5970637 L280.977299,20.5970637 Z" id="Fill-12"></path>
                    <path d="M330.15101,20.5971692 C324.94551,20.5971692 320.086487,22.386356 316.029996,25.5986637 L315.852583,23.7282462 C315.67517,22.2080703 314.703574,21.8514989 313.378197,21.8514989 L306.138711,21.8514989 C304.19865,21.8514989 303.582923,22.7429275 303.582923,24.4340044 L303.582923,62.9004659 C303.582923,64.5050374 304.551388,65.3089055 306.050005,65.3089055 L314.348749,65.3089055 C316.112441,65.3089055 316.821048,64.4174769 316.821048,62.7158505 L316.821048,36.1270154 C319.292304,33.9886418 322.913612,32.6446418 325.827356,32.6446418 C329.886978,32.6446418 330.859618,35.1480264 330.859618,38.8941363 L330.859618,62.6314549 C330.859618,64.3246418 331.565095,65.3089055 333.415406,65.3089055 L341.536737,65.3089055 C343.487234,65.3089055 344.102961,64.4174769 344.102961,62.6314549 L344.102961,36.4856967 C344.102961,26.7569934 339.864883,20.5971692 330.15101,20.5971692" id="Fill-14"></path>
                    <path d="M358.699337,59.6899516 C358.699337,62.7007648 356.272957,65.1471824 353.291378,65.1471824 C350.302494,65.1471824 347.877157,62.7007648 347.877157,59.6899516 C347.877157,56.6664791 350.302494,54.2137319 353.291378,54.2137319 C356.272957,54.2137319 358.699337,56.6664791 358.699337,59.6899516" id="Fill-16"></path>
                    <path d="M52.780514,85.8461538 C52.7022436,85.2901978 52.6719791,84.7226374 52.5488337,84.1814505 C52.1606128,82.4386813 50.811232,81.140044 49.3491419,81.0524835 C47.5489238,80.9490989 46.1484064,81.829978 45.5504209,83.5358242 C44.943043,85.2785934 44.9910488,87.0213626 45.8572407,88.6797363 C47.036514,90.949978 49.7571913,91.3329231 51.4937494,89.4846593 C52.4496913,88.4666374 52.7241593,87.1985934 52.780514,85.8461538 M45.1601128,89.3928791 C45.1601128,91.3044396 45.1622,93.140044 45.1538512,94.9788132 C45.1538512,95.2921319 45.2550808,95.6909011 44.7155372,95.6771868 C44.2135634,95.6624176 44.2636564,95.3058462 44.2636564,94.9672088 L44.2636564,81.1136703 C44.2636564,80.3773187 44.2897465,80.352 45.1214994,80.468044 L45.1214994,82.3595604 C45.4846738,81.9112088 45.7184413,81.5915604 45.9876913,81.3035604 C47.6532843,79.527033 51.6064587,79.5913846 52.9537523,82.4608352 C54.0192727,84.7163077 54.0714529,87.0371868 52.8848744,89.2525714 C51.2338919,92.3403956 46.8497087,92.3182418 45.3333512,89.5194725 C45.3208279,89.4867692 45.2769965,89.4741099 45.1601128,89.3928791" id="Fill-18"></path>
                    <path d="M130.223284,84.7861451 C130.364171,82.7258374 128.97722,81.120211 126.949497,80.986233 C124.872723,80.8490901 122.778209,82.7100132 122.713505,84.7861451 L130.223284,84.7861451 Z M122.639409,85.6965626 C122.319023,87.8950681 124.101499,90.2254418 126.308723,90.5756835 C127.635145,90.7993319 128.838421,90.5187165 129.935249,89.7285626 C130.217023,89.5270681 130.513406,89.2359033 130.805616,89.7042989 C131.083215,90.1558154 130.727345,90.3699692 130.437223,90.5493099 C128.401151,91.8679912 126.265935,91.9903648 124.190206,90.7550242 C122.114476,89.5270681 121.419435,87.5195077 121.638592,85.1849143 C121.896363,82.4758154 123.314622,80.8079473 125.700302,80.2319473 C128.878078,79.4734418 131.728162,82.0949802 131.254366,85.3210022 C131.186531,85.7714637 130.890148,85.6923429 130.610462,85.6923429 C128.173645,85.6965626 125.736828,85.6965626 123.300011,85.6965626 L122.639409,85.6965626 Z" id="Fill-20"></path>
                    <path d="M67.5754884,84.7861451 L75.0790058,84.7861451 C75.2480698,82.7490462 73.8485959,81.1265407 71.8208721,80.9936176 C69.746186,80.8448703 67.6579331,82.6973538 67.5754884,84.7861451 L67.5754884,84.7861451 Z M67.502436,85.6965626 C67.2112703,87.9298813 68.9791366,90.2254418 71.1800988,90.5799033 C72.4846047,90.7898374 73.6711831,90.5187165 74.7586192,89.7697055 C75.020564,89.5861451 75.3044244,89.1947604 75.6383779,89.664211 C75.9973779,90.1726945 75.5601076,90.3784088 75.2438953,90.5799033 C73.2203459,91.8743209 71.1018285,91.9745407 69.0532326,90.7508044 C66.9775029,89.5196835 66.2845494,87.5100132 66.5120552,85.1775297 C66.7614767,82.5042989 68.125468,80.7963429 70.4610552,80.2836396 C74.407968,79.430189 76.1539186,82.1276835 76.1226105,85.2650901 C76.1173924,85.7609143 75.7761337,85.6965626 75.4714012,85.6965626 L68.1567762,85.6965626 L67.502436,85.6965626 Z" id="Fill-22"></path>
                    <path d="M9.35372413,84.7943736 C9.2796282,82.4861538 7.87180552,80.9585934 5.89000029,80.9765275 C3.76313401,81.0113407 1.78028517,82.8659341 1.82829099,84.7943736 L9.35372413,84.7943736 Z M1.73958459,85.6963516 C1.53086366,88.0077363 3.13592762,90.2083516 5.46316599,90.5839121 C6.82298285,90.8096703 8.04086948,90.4794725 9.13247994,89.6597802 C9.42677645,89.4414066 9.65219506,89.3464615 9.89952936,89.7040879 C10.1374712,90.0416703 9.96632006,90.2357802 9.70020087,90.4182857 C7.82379971,91.7580659 5.81381715,91.9806593 3.74747994,91.0027253 C1.79802645,90.0764835 0.845215407,88.4297143 0.729375291,86.2681319 C0.654235756,84.7163077 0.94018343,83.2858022 1.88464564,82.0314725 C3.58467762,79.7738901 7.31243343,79.4436923 9.10847703,81.4164396 C10.1030323,82.5061978 10.3587154,83.8755165 10.3388869,85.3070769 C10.3326253,85.7490989 9.9986718,85.6963516 9.71272413,85.6963516 L2.40018634,85.6963516 L1.73958459,85.6963516 Z" id="Fill-24"></path>
                    <path d="M211.512364,85.5566769 C210.051317,85.3678418 207.774172,85.613644 206.733698,86.0999736 C205.878986,86.4892484 205.261172,87.0736879 205.183945,88.0969846 C205.031579,90.085556 207.062434,90.9696 208.467126,90.6457319 C210.481283,90.1794462 211.864059,87.8648967 211.512364,85.5566769 M211.477925,84.6874022 C211.973637,82.2452044 210.16507,80.5551824 207.76478,81.120633 C207.133399,81.2736 206.542719,81.6154022 205.923861,81.8211165 C205.746448,81.8823033 205.40832,81.830611 205.31544,81.7029626 C205.220472,81.5668747 205.252823,81.1691604 205.368663,81.0837099 C206.768137,79.986567 209.760152,79.7935121 211.056309,80.7334681 C212.077998,81.4687648 212.454739,82.5353143 212.488134,83.7105231 C212.543445,86.0662154 212.513181,88.4261275 212.52466,90.7881495 C212.526748,91.1499956 212.387948,91.4052923 212.032079,91.3019077 C211.846317,91.2586549 211.622986,90.9864791 211.60107,90.7902593 C211.538454,90.2976 211.579155,89.7922813 211.579155,89.2004571 C211.435137,89.414611 211.314079,89.5855121 211.204501,89.7532484 C209.966785,91.6943473 207.119832,92.1965011 205.31544,90.7944791 C203.622713,89.4747429 203.839783,86.6970725 205.728707,85.5936 C206.768137,84.9922813 207.923408,84.7549187 209.101637,84.6990066 C209.901038,84.6589187 210.702527,84.6874022 211.477925,84.6874022" id="Fill-26"></path>
                    <path d="M145.620001,80.4725802 L145.620001,82.7407121 C146.175199,82.166822 146.662562,81.5475692 147.266809,81.0760088 C148.628713,80.0147341 150.193077,79.880756 151.782487,80.3776352 C153.119344,80.7964484 153.610882,81.935789 153.654713,83.1964484 C153.737158,85.7451956 153.697501,88.2939429 153.710024,90.8405802 C153.710024,91.1644484 153.580617,91.4186901 153.247708,91.3089758 C153.065077,91.2530637 152.835484,90.9692835 152.833397,90.7793934 C152.801045,88.7581187 152.82296,86.7305143 152.811481,84.7071297 C152.805219,84.2513934 152.783303,83.7903824 152.731123,83.3409758 C152.497356,81.3270857 151.055094,80.7658549 149.311231,81.1403604 C147.178103,81.6108659 145.773411,83.3146022 145.661745,85.6069978 C145.578257,87.312844 145.626263,89.0334593 145.620001,90.7393055 C145.617914,91.0157011 145.657571,91.304756 145.253696,91.3290198 C144.834167,91.3575033 144.729806,91.1496791 144.729806,90.7646242 C144.743373,88.904756 144.738155,87.0448879 144.738155,85.1850198 L144.738155,81.1160967 C144.738155,80.3628659 144.751722,80.3523165 145.620001,80.4725802" id="Fill-28"></path>
                    <path d="M22.9700515,80.515833 C23.6671794,80.2710857 24.0178305,80.4704703 24.3329991,80.976844 C25.149098,82.2744264 26.0152898,83.5403604 26.9169642,84.9044044 C27.1507317,84.5488879 27.358409,84.2387341 27.5660863,83.9169758 C28.2235573,82.9316571 28.8966823,81.9568879 29.5155398,80.9451956 C29.8150544,80.4588659 30.1636183,80.2837451 30.8221328,80.5031736 C30.7104672,80.7553055 30.634284,81.013767 30.4913102,81.225811 C29.6261619,82.5265582 28.7537084,83.8157011 27.8656009,85.0953495 C27.6401823,85.4171077 27.6182666,85.6365363 27.852034,85.9730637 C28.8528509,87.4025143 29.821316,88.8562286 30.7939555,90.307833 C30.9630195,90.5620747 31.0997317,90.8405802 31.2489672,91.0958769 C30.668723,91.4862066 30.3692084,91.4302945 29.9966416,90.864844 C28.9812142,89.346778 27.9824846,87.8171077 26.9430544,86.2441846 C26.8428683,86.3644484 26.7437259,86.4572835 26.6696299,86.5659429 C25.7314294,87.9922286 24.7942724,89.4132396 23.8539846,90.8342505 C23.7778015,90.9502945 23.7005747,91.1401846 23.5920398,91.1644484 C23.3123538,91.2361846 23.0170137,91.2277451 22.731066,91.2530637 C22.770723,91.0262505 22.7488073,90.7646242 22.8615166,90.5937231 C23.8665078,89.0661626 24.8767172,87.5407121 25.9307578,86.0469099 C26.2146183,85.6375912 26.1780922,85.3833495 25.9161474,85.0120088 C25.0541299,83.7903824 24.2265515,82.5413275 23.3906241,81.2996571 C23.2382578,81.0675692 23.1276358,80.8069978 22.9700515,80.515833" id="Fill-30"></path>
                    <path d="M172.643204,80.1109451 C173.839175,80.1014505 174.922437,80.4337582 175.905512,81.1205275 C176.247815,81.3631648 176.577594,81.591033 176.238422,82.0678681 C175.891946,82.5541978 175.630001,82.1406593 175.368056,81.9592088 C173.712899,80.8188132 171.979472,80.6953846 170.247088,81.704967 C168.601324,82.6554725 167.725739,84.7115604 168.07639,86.6653187 C168.436434,88.6792088 169.579181,90.0327033 171.569335,90.5274725 C173.098216,90.8998681 174.500821,90.517978 175.750015,89.5379341 C176.199809,89.1834725 176.592204,89.2836923 176.60264,89.7415385 C176.612033,89.9145495 176.471146,90.1424176 176.329216,90.2510769 C174.419419,91.7575385 172.312382,92.0138901 170.119768,91.0043077 C168.020036,90.0411429 167.101664,88.234022 167.069312,85.9732747 C167.023393,83.0099341 168.657678,80.8968791 171.414882,80.2491429 C171.811451,80.1552527 172.233068,80.1552527 172.643204,80.1109451" id="Fill-32"></path>
                    <path d="M90.4868892,82.9904176 C90.8051887,82.4808791 91.0285201,82.08 91.2915084,81.7181538 C91.9667206,80.8225055 92.8830055,80.3403956 93.9986189,80.3287912 C94.1864677,80.3287912 94.3711858,80.5840879 94.5590346,80.7265055 C94.3951887,80.9142857 94.2282119,81.2645275 94.0549735,81.274022 C92.4822613,81.3478681 91.5878922,82.3268571 91.1214009,83.6676923 C90.7582265,84.7068132 90.5975113,85.8461538 90.5088049,86.9580659 C90.4086189,88.2197802 90.4806276,89.4983736 90.4868892,90.7727473 C90.4889765,91.1092747 90.4378398,91.352967 90.025616,91.3329231 C89.6593108,91.3202637 89.6008689,91.1050549 89.6008689,90.7938462 C89.6050433,87.4929231 89.6050433,84.1930549 89.6008689,80.8931868 C89.6008689,80.5545495 89.6968805,80.4026374 90.0517061,80.3931429 C90.4326218,80.3889231 90.4983689,80.5798681 90.4868892,80.8974066 C90.4785404,81.5504176 90.4868892,82.1928791 90.4868892,82.9904176" id="Fill-34"></path>
                    <path d="M108.080394,80.437556 L108.080394,81.1264352 L108.080394,90.575578 C108.080394,90.6810725 108.117964,90.8161055 108.069958,90.8857319 C107.944725,91.0492484 107.779836,91.1853363 107.629557,91.3288088 C107.480321,91.1758418 107.216289,91.0218198 107.216289,90.864633 C107.190199,87.5299516 107.198548,84.1931604 107.198548,80.8542593 C107.198548,80.1812044 107.649385,80.4459956 108.080394,80.437556" id="Fill-36"></path>
                    <path d="M190.847113,80.4725802 C190.856506,80.6909538 190.875291,80.8755692 190.875291,81.0591297 C190.879465,84.2513934 190.881552,87.4394374 190.869029,90.6285363 C190.869029,90.8542945 190.8085,91.1644484 190.660308,91.2804923 C190.343052,91.5241846 189.987183,91.2361846 189.983009,90.7393055 C189.978834,89.0081407 189.983009,87.2801407 189.983009,85.5521407 L189.983009,81.1129319 C189.983009,80.3776352 190.01536,80.3523165 190.847113,80.4725802" id="Fill-38"></path>
                    <path d="M190.968485,76.8440967 C190.96431,77.2196571 191.107284,77.664844 190.448769,77.6606242 C189.842435,77.6500747 189.870613,77.2565802 189.89879,76.8440967 C189.92488,76.4896352 189.729726,76.032844 190.403894,76.0138549 C191.098935,75.9980308 190.979964,76.4273934 190.968485,76.8440967" id="Fill-40"></path>
                    <path d="M108.186842,76.7843868 C108.191016,77.2453978 108.277635,77.663156 107.649385,77.6515516 C107.004438,77.6494418 107.07749,77.2137495 107.085839,76.7981011 C107.085839,76.4046066 106.999219,76.0174418 107.636862,76.012167 C108.329815,76.012167 108.173275,76.4562989 108.186842,76.7843868" id="Fill-42"></path>
                    <path d="M281.878242,85.7709363 C281.785362,85.0377495 281.747792,84.4068923 281.622559,83.8002989 C281.302173,82.263244 280.22726,81.2272879 278.80274,81.0289582 C277.224809,80.7958154 275.730367,81.4002989 275.084376,82.6883868 C274.07208,84.681178 274.099213,86.7298813 275.216914,88.6614857 C276.025708,90.0677275 277.389699,90.5276835 278.948844,90.2776615 C280.348318,90.0645626 281.171722,89.1562549 281.527591,87.8164747 C281.713353,87.1223209 281.775969,86.391244 281.878242,85.7709363 M281.775969,89.5423648 C281.445147,89.8335297 281.037097,90.2839912 280.54869,90.6078593 C278.429129,92.0098813 275.357801,91.2039033 274.203574,88.9030681 C273.170405,86.8406505 273.140141,84.6896176 274.04912,82.5639033 C275.433984,79.344211 280.303443,79.4085626 281.631952,81.7600352 C281.643431,81.7864088 281.691437,81.7927385 281.807277,81.8444308 C281.807277,81.4846945 281.81667,81.1597714 281.807277,80.8380132 C281.791623,80.5035956 281.92103,80.3516835 282.281074,80.3516835 C282.640074,80.3537934 282.74026,80.5310242 282.733998,80.8538374 C282.72878,82.492167 282.730867,84.1188923 282.730867,85.7487824 C282.730867,87.5896615 282.74026,89.424211 282.72878,91.2672 C282.723562,93.9383209 280.994309,95.7127385 278.329987,95.8213978 C277.160106,95.8678154 276.036144,95.7296176 274.942446,95.279156 C274.608492,95.1430681 274.421687,94.9573978 274.591795,94.5744527 C274.749379,94.2010022 275.011324,94.2516396 275.303533,94.3792879 C276.612213,94.9373538 277.948027,95.1325187 279.339152,94.6894418 C280.812722,94.2326505 281.702917,93.1333978 281.765533,91.5879033 C281.803103,90.8473319 281.775969,90.1046505 281.775969,89.5423648" id="Fill-44"></path>
                    <path d="M243.771332,86.3695121 C243.857951,85.1246769 243.671146,84.0697319 243.199436,83.069644 C242.124524,80.7698637 239.302617,80.2835341 237.528489,82.0843253 C235.808628,83.8292044 235.766884,87.6987429 237.458567,89.5079736 C238.99684,91.1494681 241.665338,90.9258198 242.930186,89.0564571 C243.506256,88.2019516 243.741067,87.2430066 243.771332,86.3695121 M243.771332,82.2900396 L243.771332,76.6629626 C243.771332,76.3401495 243.707672,75.9740835 244.234692,75.9740835 C244.758582,75.9825231 244.710576,76.3211604 244.710576,76.6576879 C244.719968,81.2952264 244.710576,85.9243253 244.719968,90.5608088 C244.719968,90.9258198 244.73771,91.3045451 244.204428,91.2823912 C243.702454,91.2697319 243.775506,90.8815121 243.771332,90.5513143 C243.766114,90.1662593 243.771332,89.7822593 243.771332,89.5860396 C243.157692,90.0681495 242.530486,90.7812923 241.748826,91.1399736 C238.962401,92.4037978 236.044483,90.7506989 235.436061,87.6365011 C235.132372,86.0604132 235.146983,84.4822154 235.778364,82.9683692 C236.765614,80.592633 239.397585,79.3973802 241.639247,80.4048527 C242.323852,80.7139516 242.857134,81.3521934 243.451989,81.8522374 C243.565742,81.9524571 243.634619,82.1054242 243.771332,82.2900396" id="Fill-46"></path>
                    <path d="M335.67481,85.4124659 C334.587374,85.4778725 333.550031,85.4652132 332.549214,85.6245099 C331.788426,85.7489934 331.024508,86.0021802 330.348252,86.3566418 C329.473711,86.813433 329.178371,87.6784879 329.329694,88.6479824 C329.460144,89.5225319 330.010124,90.1048615 330.811612,90.4129055 C332.120292,90.9340484 333.30374,90.6544879 334.271162,89.6776088 C335.388862,88.5562022 335.77917,87.1425758 335.67481,85.4124659 M335.702987,89.2398066 C335.343987,89.6638945 335.012121,90.1417846 334.607202,90.5321143 C333.257822,91.8254769 330.793871,91.8856088 329.364133,90.691411 C327.756981,89.3347516 327.991792,86.6541363 329.834798,85.5696527 C330.86901,84.9504 332.015932,84.7162022 333.192074,84.6539604 C333.996694,84.6085978 334.797138,84.6455209 335.581929,84.6455209 C335.980586,82.6242462 334.89315,81.0460484 333.014662,80.9996308 C331.992973,80.976422 331.058947,81.2148396 330.183362,81.725433 C329.868194,81.9111033 329.564505,82.0060484 329.359958,81.5956747 C329.174197,81.2148396 329.421531,81.033389 329.711653,80.8656527 C331.171656,80.0427956 332.726627,79.8750593 334.321255,80.284378 C335.668548,80.6304 336.552481,81.8657407 336.606749,83.5779165 C336.683976,85.9726418 336.647449,88.3779165 336.623447,90.7768615 C336.623447,90.9498725 336.327063,91.1186637 336.174697,91.2895648 C336.019199,91.1186637 335.745775,90.9635868 335.720728,90.7726418 C335.661243,90.2673231 335.702987,89.7493451 335.702987,89.2398066" id="Fill-48"></path>
                    <path d="M316.432306,90.5758945 L316.432306,91.2236308 C314.561122,91.6308396 312.844393,90.5516308 312.639846,88.5567297 C312.457215,86.8403341 312.52505,85.0954549 312.494785,83.3674549 C312.479131,82.6880703 312.494785,81.9981363 312.494785,81.2649495 C312.134742,81.2649495 311.844619,81.3092571 311.576413,81.2406857 C311.394826,81.2016527 311.164189,81.0085978 311.117227,80.8387516 C311.029564,80.4937846 311.26855,80.3693011 311.593111,80.3851253 C311.862361,80.3935648 312.130567,80.3893451 312.494785,80.3893451 L312.494785,78.0114989 C312.486436,77.6654769 312.451997,77.3110154 312.94771,77.3057407 C313.439247,77.2951912 313.443422,77.6496527 313.443422,77.9893451 C313.452814,78.7605099 313.452814,79.5264 313.452814,80.3893451 C314.136375,80.3893451 314.792803,80.3777407 315.445056,80.3893451 C315.761268,80.4020044 316.216279,80.2247736 316.229846,80.8071033 C316.239239,81.4421802 315.74457,81.2427956 315.416878,81.2533451 C314.782367,81.2786637 314.145768,81.2649495 313.452814,81.2649495 L313.452814,84.7515429 C313.452814,85.6461363 313.443422,86.5449495 313.452814,87.4416527 C313.462207,89.299411 314.170814,90.1591912 315.962683,90.4788396 C316.099396,90.5009934 316.237151,90.5379165 316.432306,90.5758945" id="Fill-50"></path>
                    <path d="M350.766377,82.9553934 C350.766377,80.8444484 350.758028,78.7356132 350.770551,76.6299429 C350.770551,76.4221187 350.839429,76.1341187 350.976141,76.0360088 C351.299659,75.7997011 351.657615,76.0360088 351.672226,76.4674813 C351.689967,76.9242725 351.672226,77.3852835 351.672226,77.8420747 C351.672226,81.369811 351.672226,84.9049319 351.6764,88.4295033 C351.6764,88.742822 351.701447,89.0666901 351.763019,89.3620747 C351.871554,89.951789 352.17733,90.3568879 352.806624,90.4128 C353.170842,90.4528879 353.37017,90.6543824 353.249112,90.9940747 C353.196932,91.1502066 352.916202,91.3116132 352.731484,91.3116132 C351.557429,91.3116132 350.844647,90.5604923 350.770551,89.2840088 C350.770551,89.2006681 350.766377,89.1173275 350.766377,89.0339868 L350.766377,82.9553934 Z" id="Fill-52"></path>
                    <path d="M259.804543,80.4302769 C259.822284,80.6106725 259.836895,80.7573099 259.836895,80.8923429 C259.842113,84.1500132 259.836895,87.4024088 259.8442,90.6537495 C259.848374,91.084167 259.755494,91.4090901 259.278566,91.257178 C259.120982,91.2044308 258.97279,90.854189 258.968616,90.6368703 C258.947744,87.9657495 258.959223,85.2935736 258.959223,82.6266725 L258.959223,81.0590242 C258.959223,80.3195077 258.978008,80.3036835 259.804543,80.4302769" id="Fill-54"></path>
                    <path d="M297.843098,80.4261626 C297.855621,80.5833495 297.875449,80.7109978 297.875449,80.8312615 C297.875449,84.1248 297.881711,87.4246681 297.875449,90.7139868 C297.875449,91.208756 297.610374,91.4556132 297.26181,91.2530637 C297.106313,91.1581187 297.006127,90.8511297 297.006127,90.6369758 C296.985255,87.9109978 296.994647,85.1713055 296.994647,82.4432176 L296.994647,81.0675692 C297.001952,80.3248879 297.010301,80.3058989 297.843098,80.4261626" id="Fill-56"></path>
                    <path d="M259.948247,76.8173011 C259.922157,77.1242901 260.103744,77.5905758 259.457753,77.6148396 C258.840983,77.6285538 258.821154,77.2561582 258.845157,76.8067516 C258.86916,76.3995429 258.728274,75.9659604 259.412878,75.9701802 C260.057826,75.9744 259.948247,76.3816088 259.948247,76.8173011" id="Fill-58"></path>
                    <path d="M297.981688,76.7956747 C297.972296,77.1617407 298.111095,77.6100923 297.472409,77.6143121 C296.836854,77.616422 296.868162,77.2081582 296.88486,76.7777407 C296.900514,76.4011253 296.759627,75.9823121 297.413967,75.9707077 C298.080831,75.9664879 298.004648,76.3694769 297.981688,76.7956747" id="Fill-60"></path>
                </g>
            </g>
        </g>
    </g>
</svg>