<svg id="beneficio1.svg" xmlns="http://www.w3.org/2000/svg" width="89" height="88.97" viewBox="0 0 89 88.97">
  <defs>
    <style>
      .cls-1 {
        fill: #ad0e05;
        fill-opacity: 0;
        stroke: #650194;
        stroke-linejoin: round;
        stroke-width: 3px;
      }

      .cls-2 {
        fill: #650194;
        fill-rule: evenodd;
      }
    </style>
  </defs>
  <ellipse id="Elipse_3" data-name="Elipse 3" class="cls-1" cx="44.5" cy="44.485" rx="43" ry="42.985"/>
  <path class="cls-2" d="M272.677,2126.36v-18.42a4.089,4.089,0,0,0-4.085-4.09h-10.62v-4.08a4.089,4.089,0,0,0-4.084-4.09h-9.8a4.089,4.089,0,0,0-4.084,4.09v4.08h-10.62a4.089,4.089,0,0,0-4.084,4.09v28.59a4.086,4.086,0,0,0,4.084,4.08h23.568A12.233,12.233,0,0,0,272.677,2126.36Zm-31.042-26.59a2.453,2.453,0,0,1,2.45-2.45h9.8a2.454,2.454,0,0,1,2.451,2.45v4.08h-1.634v-4.08a0.82,0.82,0,0,0-.817-0.82h-9.8a0.82,0.82,0,0,0-.817.82v4.08h-1.633v-4.08Zm11.436,0.81v3.27H244.9v-3.27h8.169Zm-26.141,8.99v-1.63a2.456,2.456,0,0,1,2.451-2.46h39.211a2.456,2.456,0,0,1,2.451,2.46v8.98a4.1,4.1,0,0,1-4.085,4.09H266.42a12.017,12.017,0,0,0-8.726,0h-3.806v-2.45a0.813,0.813,0,0,0-.817-0.82H244.9a0.813,0.813,0,0,0-.817.82v2.45h-13.07a4.1,4.1,0,0,1-4.085-4.09v-7.35Zm44.113,11.35v3.22a12.463,12.463,0,0,0-2.133-1.85A5.847,5.847,0,0,0,271.043,2120.92Zm-18.789-1.55v1.64h-6.535v-1.64h6.535Zm-17.155,3.27v2.45h-2.45v-2.45h2.45Zm-5.718,16.34a2.454,2.454,0,0,1-2.451-2.45v-15.61a5.706,5.706,0,0,0,4.085,1.72v3.27a0.811,0.811,0,0,0,.817.81h4.084a0.811,0.811,0,0,0,.817-0.81v-3.27h18a12.192,12.192,0,0,0-3.026,16.34H229.381Zm43.254-5.72a10.626,10.626,0,0,1-9.761,9.76v-1.59H261.24v1.59a10.612,10.612,0,0,1-7.352-3.8v-0.24H253.7a10.55,10.55,0,0,1-2.225-5.72h1.593v-1.63h-1.592a10.626,10.626,0,0,1,9.761-9.77v1.6h1.634v-1.6a10.627,10.627,0,0,1,9.761,9.77h-1.592v1.63h1.592Zm-9.761-1.16v-7.01H261.24v7.35a0.812,0.812,0,0,0,.239.58l4.9,4.9,1.155-1.15Zm-1.634-15.18h1.634v1.64H261.24v-1.64Zm3.268,0h1.633v1.64h-1.633v-1.64Zm-6.536,0h1.634v1.64h-1.634v-1.64Z" transform="translate(-204.5 -2076.5)"/>
</svg>
