<?xml version="1.0" encoding="utf-8"?>
<!-- Generator: Adobe Illustrator 21.1.0, SVG Export Plug-In . SVG Version: 6.00 Build 0)  -->
<svg version="1.1" id="beneficio1.svg" xmlns="http://www.w3.org/2000/svg" xmlns:xlink="http://www.w3.org/1999/xlink" x="0px"
	 y="0px" viewBox="0 0 89 89" style="enable-background:new 0 0 89 89;" xml:space="preserve">
<style type="text/css">
	.st0{fill:#FFFFFF;fill-opacity:0;stroke:#FFFFFF;stroke-width:3;stroke-linejoin:round;}
	.st1{fill:#FFFFFF;}
</style>
<ellipse id="Elipse_3" class="st0" cx="44.5" cy="44.5" rx="43" ry="43"/>
<path class="st1" d="M68.2,49.9V31.4c0-2.3-1.8-4.1-4.1-4.1H53.5v-4.1c0-2.3-1.8-4.1-4.1-4.1h-9.8c-2.3,0-4.1,1.8-4.1,4.1v4.1H24.9
	c-2.3,0-4.1,1.8-4.1,4.1V60c0,2.3,1.8,4.1,4.1,4.1h23.6c4.5,5,12.2,5.5,17.3,1C70,61.2,71.1,54.9,68.2,49.9z M37.1,23.3
	c0-1.4,1.1-2.4,2.4-2.4h9.8c1.4,0,2.4,1.1,2.5,2.4v4.1h-1.6v-4.1c0-0.5-0.4-0.8-0.8-0.8h-9.8c-0.5,0-0.8,0.4-0.8,0.8v4.1h-1.6
	L37.1,23.3L37.1,23.3z M48.6,24.1v3.3h-8.2v-3.3H48.6L48.6,24.1z M22.4,33.1v-1.6c0-1.4,1.1-2.5,2.5-2.5h39.2c1.4,0,2.5,1.1,2.5,2.5
	v9c0,2.3-1.8,4.1-4.1,4.1h-0.5c-2.8-1.1-5.9-1.1-8.7,0h-3.8v-2.4c0-0.4-0.4-0.8-0.8-0.8c0,0,0,0,0,0h-8.2c-0.4,0-0.8,0.4-0.8,0.8
	c0,0,0,0,0,0v2.4H26.5c-2.3,0-4.1-1.8-4.1-4.1L22.4,33.1L22.4,33.1z M66.5,44.4v3.2c-0.6-0.7-1.4-1.3-2.1-1.9
	C65.2,45.5,65.9,45,66.5,44.4L66.5,44.4z M47.8,42.9v1.6h-6.5v-1.6H47.8z M30.6,46.1v2.4h-2.4v-2.4H30.6z M24.9,62.5
	c-1.4,0-2.4-1.1-2.5-2.4V44.4c1.1,1.1,2.5,1.7,4.1,1.7v3.3c0,0.4,0.4,0.8,0.8,0.8c0,0,0,0,0,0h4.1c0.4,0,0.8-0.4,0.8-0.8
	c0,0,0,0,0,0v-3.3h18c-5.1,3.8-6.5,10.9-3,16.3H24.9z M68.1,56.8c-0.4,5.2-4.5,9.4-9.8,9.8v-1.6h-1.6v1.6c-2.9-0.2-5.5-1.6-7.4-3.8
	v-0.2h-0.2c-1.3-1.6-2.1-3.6-2.2-5.7h1.6v-1.6H47c0.4-5.2,4.5-9.4,9.8-9.8V47h1.6v-1.6c5.2,0.4,9.4,4.6,9.8,9.8h-1.6v1.6H68.1
	L68.1,56.8z M58.4,55.6v-7h-1.6v7.4c0,0.2,0.1,0.4,0.2,0.6l4.9,4.9l1.2-1.1L58.4,55.6z M56.7,40.4h1.6v1.6h-1.6L56.7,40.4L56.7,40.4
	z M60,40.4h1.6v1.6H60V40.4z M53.5,40.4h1.6v1.6h-1.6V40.4z"/>
</svg>
